#!OML:ASF E:/inclinewalkrobotboard/Project1/Captureday1/Session1/subject1.ASF
:FULLY-SPECIFIED
:DEGREES
13
root 0 0 0 -1.7550336093122334 0.8914024147778612 -0.788228475840993
lowerback 9.527804027287255 -1.6803011048572647 -1.7775209720555234
upperback -0.07293549836512224 -2.289266133836402 2.4117616748454522
thorax -5.276696910297031 -1.0720536601945625 3.8477637870909613
lowerneck -18.479954848287644 -2.1789172075475456 -1.930274373383376
upperneck 22.052833701087813 -2.5720822290321905 -0.5127151319541079
head 10.09678078917057 -1.3109852484783067 -0.22497061193716333
rclavicle -1.3945985517588369E-15 -5.557214756926379E-16
rhumerus -36.00903095626988 -24.6172831748992 -77.24785993235882
rradius 18.187066985004797
rwrist 7.924851473760872
rhand -17.896880233908803 25.24466275234508
rfingers 7.125020000000022
rthumb 8.365862348027253 -4.564693849524026
lclavicle -3.1255907560924385E-15 -1.2597775575064089E-15
lhumerus -27.956046220261825 -2.864582051528909 81.11781627695872
lradius 31.19763732427832
lwrist 7.385737883686046
lhand -27.726497188487826 25.722010586694388
lfingers 7.125020000000002
lthumb -1.1399052879546963 55.71910748299925
rfemur -20.466670603342312 6.619261104206647 23.405414195937485
rtibia 20.47613051649309
rfoot -8.979239826856807 -6.46065147169309
rtoes 5.558429139505855
lfemur 15.36180474083718 -3.14663574438837 -25.737509608777124
ltibia 35.48482452416939
lfoot -0.9187071465120908 -12.80475453227275
ltoes -8.883498061899118
14
root 0 0 0 -2.8740888852005595 -0.1619528737331346 -2.8655636320114173
lowerback 10.450444697762627 -1.4243481407418033 0.1956171494144564
upperback 0.38326982557834927 -1.702401546825907 2.731417381747042
thorax -5.412976343864389 -0.8214663393502573 3.002843605150889
lowerneck -17.10796552718396 -2.2770406744604736 -1.664273185969474
upperneck 19.43614437857495 -2.616713420382739 -0.5554846637382418
head 8.90145546939758 -1.3865511961977108 -0.2528519824505084
rclavicle -1.6369680795328782E-15 -2.2275039033615253E-15
rhumerus -35.853912931128534 -24.375930745957564 -77.44669785730036
rradius 18.043488724827014
rwrist 8.35194525309014
rhand -17.828307688030506 25.498913061671836
rfingers 7.125020000000021
rthumb 8.432518175111902 -4.299137400879964
lclavicle -4.1417238353669906E-15 -3.4061526789384065E-15
lhumerus -29.353059324604548 -2.271602451054702 82.4341715094044
lradius 30.066010253727356
lwrist 6.963974240647339
lhand -27.549912538679393 25.22991728477614
lfingers 7.1250200000000135
lthumb -0.9600286498486108 55.21720863894898
rfemur -19.73960900626918 6.689012426434404 25.320989052981304
rtibia 24.2170893746837
rfoot -9.289766936240959 -5.5341007185438595
rtoes 9.008430256551685
lfemur -0.6483561336857555 -0.4162242314600566 -18.619687838707545
ltibia 57.442902455584516
lfoot 16.2470799421011 -20.80806309057907
ltoes -0.23119501190875624
15
root 0 0 0 -3.599514004994402 -1.1297332409102758 -4.499251689086131
lowerback 11.520929522379213 -1.0241287197760456 1.7112992133149716
upperback 0.8274903700781886 -0.9680469048089606 3.0246090237111796
thorax -5.587852078305603 -0.4871999296211733 2.3545189954903365
lowerneck -16.281946256321334 -2.565563442480843 -1.6737655697565703
upperneck 17.950754736931994 -2.967954775658072 -0.32087875223385165
head 8.271601757048987 -1.5767438460747563 -0.20297560589665337
rclavicle -8.573883765243867E-16 -4.8000904441197206E-15
rhumerus -35.01972920596168 -23.618024997041267 -77.7961176716542
rradius 18.35837750436947
rwrist 8.41209389505277
rhand -17.789439483122926 25.9571815949151
rfingers 7.1250200000000214
rthumb 8.468471520561554 -3.8357010318146436
lclavicle -3.3222770043892644E-15 -6.156079652632042E-15
lhumerus -29.85844828274149 -1.9039769921145353 83.25831446538287
lradius 29.261351835851535
lwrist 6.6411223351968
lhand -27.59650203075637 24.797037992876938
lfingers 7.12502000000002
lthumb -1.0020381243127359 54.78214511013269
rfemur -17.971685601601884 7.000680543279001 26.81892389099893
rtibia 25.584311759940263
rfoot -9.810243154004642 -5.697951145907387
rtoes 10.106476905860688
lfemur -12.238530964595732 2.109039741611725 -12.73349415350815
ltibia 67.2679339282939
lfoot 12.219448671886909 -17.4037966908091
ltoes -8.885956860130449
16
root 0 0 0 -3.9553417162540194 -2.616822415227948 -5.416187672403675
lowerback 11.973719078385384 -0.22303037751978694 2.8569433038445355
upperback 0.5923025765286924 0.24763459895640727 2.945046154859261
thorax -6.101502479717957 0.08632260849801043 1.436656824758412
lowerneck -15.69470511686066 -2.7838551836070335 -1.3699765360833633
upperneck 19.187254841818152 -3.385589443963947 -0.12712112363064287
head 8.725584059236082 -1.7275864318800425 -0.2427481726603879
rclavicle -2.3857356416222968E-15 -4.8299220042717195E-15
rhumerus -34.203221565870855 -22.620973900563285 -78.26068299063517
rradius 18.891383949840638
rwrist 8.24493324631701
rhand -17.767404116808933 26.297549233296984
rfingers 7.125020000000021
rthumb 8.490033096150201 -3.493811898054787
lclavicle -4.629834967657194E-15 -5.9565879729794626E-15
lhumerus -30.8615027300663 -1.0433166600615627 83.78403555448303
lradius 28.18723500916498
lwrist 6.4115119143473684
lhand -27.68398222343054 24.493503975212832
lfingers 7.125020000000026
lthumb -1.0875661621263166 54.47966524015101
rfemur -11.380170810751318 7.894047102986153 31.012701338661678
rtibia 26.054885955902655
rfoot -14.436982936801096 -5.903085191536088
rtoes 10.782691053088275
lfemur -20.30340102556687 4.087401059523375 -11.787689805362948
ltibia 71.91652058966481
lfoot 6.264378883570206 -13.170118582490563
ltoes -9.018156349691512
